<?xml version="1.0" encoding="UTF-8"?>
<svg id="Final" xmlns="http://www.w3.org/2000/svg" viewBox="0 0 67.6 71.66">
  <defs>
    <style>
      .cls-1 {
        fill: #fff;
      }
    </style>
  </defs>
  <path class="cls-1" d="M32.59,45.36v.09c0,2.94.19,5.87.59,8.63.04.27.08.54.13.8.05.3.09.62.14.92.05.27.1.53.16.77.06.27.12.53.19.75,0,0,0,0,0,0,0,0,0,0,0,0,.06-.22.13-.48.19-.75.05-.24.1-.5.16-.77.06-.3.09-.61.14-.92.04-.27.09-.53.13-.8.4-2.76.59-5.69.59-8.63v-.09c-.4.04-.8.07-1.2.07s-.81-.03-1.2-.07Z"/>
  <path class="cls-1" d="M67.6,41.6v-7.48l-8.94-4.02c-.47-1.51-1.08-2.95-1.8-4.33l3.48-9.17-5.29-5.29-9.17,3.48c-1.1-.58-2.25-1.08-3.43-1.5.87-1.19,1.32-2.63,1.21-4.04-.09-1.22-.54-2.93-1.92-2.97-.55-.02-1.34-.02-2.12-.02l.8-1.51c.53-.99.5-2.16-.08-3.12-.61-1.01-1.74-1.64-2.96-1.64h-7.18c-1.22,0-2.35.63-2.96,1.64-.58.96-.61,2.13-.08,3.12l.8,1.51c-.78,0-1.57,0-2.12.02-1.39.04-1.83,1.75-1.92,2.97-.1,1.42.34,2.85,1.21,4.04-1.19.42-2.33.92-3.43,1.5l-9.17-3.48-5.29,5.29,3.48,9.17c-.72,1.38-1.33,2.82-1.8,4.33L0,34.12v7.48l8.94,4.02c.47,1.51,1.08,2.95,1.8,4.33l-3.48,9.17,5.29,5.29,9.17-3.48c1.37.72,2.82,1.33,4.32,1.8l4.02,8.94h7.48l4.02-8.94c1.51-.47,2.95-1.08,4.32-1.8l9.17,3.48,5.29-5.29-3.48-9.17c.72-1.38,1.33-2.82,1.8-4.33l8.94-4.02ZM30.21,2.5h7.18c.66,0,1.1.57.83,1.08l-.55,2.38c-1.04.2-2.81.3-3.87.3s-2.83-.1-3.87-.3l-.55-2.38c-.27-.51.17-1.08.83-1.08ZM28.23,8.42h11.14c1.14,0,2.07.93,2.07,2.07,0,1-.71,1.83-1.65,2.03-.14.03-.28.04-.42.04h-11.14c-.14,0-.28-.01-.42-.04-.94-.19-1.65-1.03-1.65-2.03,0-1.14.93-2.07,2.07-2.07ZM53.88,45.53c-.17.4-.35.8-.54,1.19-2.12,4.32-5.64,7.83-9.96,9.96-1.02.5-2.08.93-3.18,1.26-2.02.62-4.17.96-6.4.96s-4.38-.34-6.4-.96c-1.1-.34-2.16-.76-3.18-1.26-4.32-2.12-7.83-5.64-9.96-9.96-.19-.39-.37-.79-.54-1.19-1.08-2.58-1.68-5.42-1.68-8.39,0-2.49.43-4.89,1.2-7.12.15-.43.31-.86.48-1.27,1.71-4.1,4.65-7.56,8.35-9.93h0s.02-.01.05-.03c.48-.31.98-.6,1.49-.87.66-.44,1.41-1,1.99-1.64.36-.4.67-.83.84-1.27,0-.01.01-.01.02-.02.16.31.23.81-.07,1.59-.02.04-.03.08-.05.13-.06.15-.15.31-.24.48-.27.48-.67,1.04-1.24,1.68-.2.23-.42.47-.67.72-.48.49-1.05,1.03-1.73,1.62-.09.07-.16.14-.22.21-4.17,3.38-6.83,8.53-6.83,14.31,0,3.26.86,6.32,2.35,8.98,2.17,3.87,5.7,6.87,9.94,8.36v-8.68c0-.37-.2-.71-.51-.91-.01,0-.02-.02-.03-.03-.4-.26-.78-.54-1.14-.84-.02-.02-.04-.03-.06-.05-.37-.31-.72-.64-1.05-.99h0c-.66-.71-1.23-1.49-1.71-2.34-.02-.03-.04-.07-.06-.1-.22-.4-.41-.8-.59-1.23-.02-.06-.05-.12-.07-.18-.16-.41-.3-.84-.42-1.27-.02-.07-.03-.14-.05-.2-.11-.44-.2-.89-.26-1.35,0-.05-.01-.11-.02-.16-.06-.48-.09-.97-.09-1.47,0-.43.03-.85.07-1.27,0-.08.01-.15.02-.23.05-.4.12-.79.2-1.18.02-.07.04-.15.05-.22.1-.4.21-.79.34-1.17,0,0,0,0,0,0,.14-.38.3-.75.47-1.11.03-.07.06-.14.1-.2.17-.35.36-.68.56-1.01.04-.06.08-.12.12-.19.21-.33.44-.66.69-.97,0,0,0,0,0,0,.25-.31.51-.61.79-.89.05-.05.1-.11.15-.16.27-.27.55-.53.85-.77.02-.02.04-.04.07-.06.01,0,.02-.01.04-.02.54-.44,1.11-.83,1.72-1.18v10.34c0,.39.21.76.56.95l4.18,2.3h0s1.2.66,1.2.66l1.2-.66h0s4.18-2.3,4.18-2.3c.35-.19.56-.55.56-.95v-10.34c.61.34,1.18.74,1.72,1.18.01,0,.02.01.04.02.02.02.04.04.07.06.29.24.58.5.85.77.05.05.1.11.15.16.28.29.54.58.79.89,0,0,0,0,0,0,.25.31.47.64.69.97.04.06.08.12.12.19.2.33.39.66.56,1.01.03.07.06.14.1.2.17.36.33.73.47,1.11,0,0,0,0,0,0,.13.38.24.77.34,1.17.02.07.04.15.05.22.09.39.15.78.2,1.18,0,.08.02.15.02.23.04.42.07.84.07,1.27,0,.5-.04.99-.09,1.47,0,.05-.01.11-.02.16-.06.46-.15.91-.26,1.35-.02.07-.03.14-.05.2-.12.43-.26.86-.42,1.27-.02.06-.05.12-.07.18-.17.42-.37.83-.59,1.23-.02.03-.04.07-.06.1-.48.85-1.05,1.63-1.71,2.34h0c-.33.35-.68.68-1.05.99-.02.02-.04.03-.06.05-.36.3-.74.58-1.14.84-.01,0-.02.02-.03.03-.31.2-.51.54-.51.91v8.68c4.24-1.5,7.77-4.49,9.94-8.36,1.49-2.66,2.35-5.72,2.35-8.98,0-5.78-2.67-10.93-6.83-14.31-.06-.07-.13-.13-.22-.21-.68-.59-1.24-1.12-1.73-1.62-.25-.25-.47-.49-.67-.72-.57-.65-.97-1.21-1.24-1.68-.09-.17-.18-.33-.24-.48-.02-.04-.03-.08-.05-.13-.31-.78-.23-1.29-.07-1.59,0,0,.02.01.02.02.17.44.47.87.84,1.27.58.64,1.33,1.21,1.99,1.64.51.27,1.01.56,1.49.87.03.02.05.03.05.03h0c3.7,2.38,6.63,5.84,8.35,9.94.17.42.33.84.48,1.27.77,2.23,1.2,4.63,1.2,7.12,0,2.97-.6,5.81-1.68,8.39Z"/>
</svg>